# xmcd
# 
# Track frame offsets:
#     150
#     18560
#     37899
#     53454
#     78813
#     94928
#     121572
#     139771
#     164952
#     185374
#     198248
#     223363
#     241641
# 
# Disc length: 3456
# 
# Revision: 1
# Processed by: cddbd v1.5.2PL0 Copyright (c) Steve Scherf et al.
# Submitted via: BonkEnc v1.0.6
# 
DISCID=a60d7e0d
DTITLE=Robert Plant - Alison Krauss - Raising Sand
DYEAR=2008
DGENRE=Blues
TTITLE0=Rich Woman
TTITLE1=Killing The Blues
TTITLE2=Sister Rosetta Goes Before Us
TTITLE3=Polly Come Home
TTITLE4=Gone, Gone, Gone (Done Moved On)
TTITLE5=Through The Morning, Through The Night
TTITLE6=Please Read The Letter
TTITLE7=Trampled Rose
TTITLE8=Fortune Teller
TTITLE9=Stick With Me Baby
TTITLE10=Nothin´
TTITLE11=Let Your Loss Be Your Lesson
TTITLE12=Your Long Journey
EXTD=
EXTT0=
EXTT1=
EXTT2=
EXTT3=
EXTT4=
EXTT5=
EXTT6=
EXTT7=
EXTT8=
EXTT9=
EXTT10=
EXTT11=
EXTT12=
PLAYORDER=
